/* XPM */
static char * close_inactive_xpm[] = {
"20 20 7 1",
" 	c None",
".	c #F7F7F7",
"+	c #E4E4E4",
"@	c #BCBCBC",
"#	c #F1F1F1",
"$	c #AAAAAA",
"%	c #B8B8B8",
"....................",
"....................",
"....................",
"....................",
"....................",
"....................",
"......+@#..#@+......",
"......@$%##%$@......",
"......#%$%%$%#......",
".......#%$$%#.......",
".......#%$$%#.......",
"......#%$%%$%#......",
"......@$%##%$@......",
"......+@#..#@+......",
"....................",
"....................",
"....................",
"....................",
"....................",
"...................."};
