/* XPM */
static char * close_pressed_xpm[] = {
"20 20 14 1",
" 	c None",
".	c #F7F7F7",
"+	c #F3F1F5",
"@	c #CFB9E5",
"#	c #BB9BDD",
"$	c #A97FD5",
"%	c #E2D6ED",
"&	c #AD83D6",
"*	c #A172D2",
"=	c #A173D2",
"-	c #B591DB",
";	c #E3D7ED",
">	c #A67AD4",
",	c #E6DCEF",
"....................",
"....................",
"....................",
"......+@#$$#@+......",
".....%&******&%.....",
"....%=********=%....",
"...+&*-;>**>;-*&+...",
"...@**;.,>>,.;**@...",
"...#**>,.,,.,>**#...",
"...$***>,..,>***$...",
"...$***>,..,>***$...",
"...#**>,.,,.,>**#...",
"...@**;.,>>,.;**@...",
"...+&*-;>**>;-*&+...",
"....%=********=%....",
".....%&******&%.....",
"......+@#$$#@+......",
"....................",
"....................",
"...................."};
