/* XPM */
static char * close_active_xpm[] = {
"20 20 8 1",
" 	c None",
".	c #F7F7F7",
"+	c #F6F6F6",
"@	c #CCCCCC",
"#	c #696969",
"$	c #EAEAEA",
"%	c #444444",
"&	c #5D5D5D",
"....................",
"....................",
"....................",
"......++.++.++......",
"......+......+......",
"....................",
"...++.@#$..$#@.++...",
"...+..#%&$$&%#..+...",
"......$&%&&%&$......",
"...+...$&%%&$...+...",
"...+...$&%%&$...+...",
"......$&%&&%&$......",
"...+..#%&$$&%#..+...",
"...++.@#$..$#@.++...",
"....................",
"......+......+......",
"......++.++.++......",
"....................",
"....................",
"...................."};
