/* XPM */
static char * close_prelight_xpm[] = {
"20 20 13 1",
" 	c None",
".	c #F7F7F7",
"+	c #FAFAFA",
"@	c #FCFCFC",
"#	c #FEFEFE",
"$	c #F8F8F8",
"%	c #FDFDFD",
"&	c #FFFFFF",
"*	c #DFDFDF",
"=	c #979797",
"-	c #F5F5F5",
";	c #777777",
">	c #919191",
"....................",
"....................",
"....................",
".......+@##@+.......",
".....$%&&&&&&%$.....",
"....$#&&&&&&&&#$....",
"....%&*=-&&-=*&%....",
"...+&&=;>-->;=&&+...",
"...@&&->;>>;>-&&@...",
"...#&&&->;;>-&&&#...",
"...#&&&->;;>-&&&#...",
"...@&&->;>>;>-&&@...",
"...+&&=;>-->;=&&+...",
"....%&*=-&&-=*&%....",
"....$#&&&&&&&&#$....",
".....$%&&&&&&%$.....",
".......+@##@+.......",
"....................",
"....................",
"...................."};
