<?xml version="1.0" encoding="UTF-8" standalone="no"?>
<!-- Created with Inkscape (http://www.inkscape.org/) -->

<svg
   xmlns:dc="http://purl.org/dc/elements/1.1/"
   xmlns:cc="http://creativecommons.org/ns#"
   xmlns:rdf="http://www.w3.org/1999/02/22-rdf-syntax-ns#"
   xmlns:svg="http://www.w3.org/2000/svg"
   xmlns="http://www.w3.org/2000/svg"
   xmlns:xlink="http://www.w3.org/1999/xlink"
   xmlns:sodipodi="http://sodipodi.sourceforge.net/DTD/sodipodi-0.dtd"
   xmlns:inkscape="http://www.inkscape.org/namespaces/inkscape"
   width="48"
   height="48"
   id="svg2"
   version="1.1"
   inkscape:version="0.48.4 r9939"
   sodipodi:docname="applications-graphics.svg">
  <defs
     id="defs4">
    <linearGradient
       id="linearGradient3795">
      <stop
         style="stop-color:#4fa44e;stop-opacity:1;"
         offset="0"
         id="stop3797" />
      <stop
         style="stop-color:#3b862b;stop-opacity:1;"
         offset="1"
         id="stop3799" />
    </linearGradient>
    <linearGradient
       id="linearGradient3698">
      <stop
         id="stop3700"
         offset="0"
         style="stop-color:#96d0e1;stop-opacity:1" />
      <stop
         style="stop-color:#89b7e1;stop-opacity:1"
         offset="0.67819428"
         id="stop3706" />
      <stop
         id="stop3702"
         offset="1"
         style="stop-color:#699dd3;stop-opacity:1" />
    </linearGradient>
    <linearGradient
       id="linearGradient3708">
      <stop
         id="stop3710"
         offset="0"
         style="stop-color:#658db6;stop-opacity:1" />
      <stop
         style="stop-color:#527fab;stop-opacity:1;"
         offset="0.76777935"
         id="stop3716" />
      <stop
         id="stop3712"
         offset="1"
         style="stop-color:#4071a0;stop-opacity:1" />
    </linearGradient>
    <linearGradient
       id="linearGradient3750">
      <stop
         style="stop-color:#d0e2f1;stop-opacity:1"
         offset="0"
         id="stop3752" />
      <stop
         id="stop3756"
         offset="0.85580856"
         style="stop-color:#cadef0;stop-opacity:1" />
      <stop
         style="stop-color:#95bee3;stop-opacity:1"
         offset="1"
         id="stop3754" />
    </linearGradient>
    <linearGradient
       id="linearGradient3803">
      <stop
         id="stop3805"
         offset="0"
         style="stop-color:#d7def0;stop-opacity:1;" />
      <stop
         style="stop-color:#ffffff;stop-opacity:1"
         offset="0.5"
         id="stop3811" />
      <stop
         id="stop3807"
         offset="1"
         style="stop-color:#d5def0;stop-opacity:1" />
    </linearGradient>
    <linearGradient
       inkscape:collect="always"
       xlink:href="#linearGradient3795"
       id="linearGradient3801"
       x1="23.204165"
       y1="1053.158"
       x2="23.204165"
       y2="1004.8474"
       gradientUnits="userSpaceOnUse"
       gradientTransform="translate(0,-2056.7244)" />
    <linearGradient
       inkscape:collect="always"
       xlink:href="#linearGradient3795"
       id="linearGradient3859"
       x1="26.192217"
       y1="1024.0002"
       x2="28.641211"
       y2="1024.0002"
       gradientUnits="userSpaceOnUse" />
    <linearGradient
       inkscape:collect="always"
       xlink:href="#linearGradient3795"
       id="linearGradient3867"
       gradientUnits="userSpaceOnUse"
       x1="26.192217"
       y1="1024.0002"
       x2="28.641211"
       y2="1024.0002" />
    <linearGradient
       inkscape:collect="always"
       xlink:href="#linearGradient3795"
       id="linearGradient3869"
       gradientUnits="userSpaceOnUse"
       x1="26.192217"
       y1="1024.0002"
       x2="28.641211"
       y2="1024.0002" />
    <linearGradient
       inkscape:collect="always"
       xlink:href="#linearGradient3795"
       id="linearGradient3871"
       gradientUnits="userSpaceOnUse"
       x1="26.192217"
       y1="1024.0002"
       x2="28.641211"
       y2="1024.0002" />
    <linearGradient
       inkscape:collect="always"
       xlink:href="#linearGradient3795"
       id="linearGradient3877"
       gradientUnits="userSpaceOnUse"
       x1="29.718235"
       y1="1027.8575"
       x2="22.811094"
       y2="1015.5485" />
    <linearGradient
       inkscape:collect="always"
       xlink:href="#linearGradient3795"
       id="linearGradient3879"
       gradientUnits="userSpaceOnUse"
       x1="17.196316"
       y1="1006.2238"
       x2="31.448042"
       y2="1030.9086" />
    <linearGradient
       inkscape:collect="always"
       xlink:href="#linearGradient3795"
       id="linearGradient3895"
       x1="21.973417"
       y1="34.43922"
       x2="42.475323"
       y2="24.798252"
       gradientUnits="userSpaceOnUse" />
  </defs>
  <sodipodi:namedview
     id="base"
     pagecolor="#ffffff"
     bordercolor="#666666"
     borderopacity="1.0"
     inkscape:pageopacity="0.0"
     inkscape:pageshadow="2"
     inkscape:zoom="8.0000004"
     inkscape:cx="19.018395"
     inkscape:cy="33.796185"
     inkscape:document-units="px"
     inkscape:current-layer="layer1"
     showgrid="false"
     inkscape:window-width="1366"
     inkscape:window-height="715"
     inkscape:window-x="0"
     inkscape:window-y="26"
     inkscape:window-maximized="1">
    <inkscape:grid
       type="xygrid"
       id="grid3850" />
  </sodipodi:namedview>
  <metadata
     id="metadata7">
    <rdf:RDF>
      <cc:Work
         rdf:about="">
        <dc:format>image/svg+xml</dc:format>
        <dc:type
           rdf:resource="http://purl.org/dc/dcmitype/StillImage" />
        <dc:title />
      </cc:Work>
    </rdf:RDF>
  </metadata>
  <g
     inkscape:label="Capa 1"
     inkscape:groupmode="layer"
     id="layer1"
     transform="translate(0,-1004.3622)">
    <path
       style="fill:#4fa44e;fill-opacity:1;stroke:none"
       d="m 23.615682,1020.6806 c -7.612929,0.3369 -15.018796,4.0502 -11.874016,11.5652 4.58741,-1.7251 10.975105,0.8484 8.32196,2.1235 5.226833,4.3016 18.132397,-2.648 16.846891,-8.5595 -1.332253,-3.6013 -7.373669,-5.391 -13.294835,-5.1292 z m -0.202976,2.1236 c 1.588079,0 2.875474,0.4242 2.875474,0.9474 0,0.5233 -1.287395,0.9474 -2.875474,0.9474 -1.58808,0 -2.875472,-0.4241 -2.875472,-0.9474 0,-0.5232 1.287392,-0.9474 2.875472,-0.9474 z m 7.104111,1.5681 c 1.58808,0 2.875474,0.4243 2.875474,0.9475 0,0.5232 -1.287394,0.9474 -2.875474,0.9474 -1.588079,0 -2.875473,-0.4242 -2.875473,-0.9474 0,-0.5232 1.287394,-0.9475 2.875473,-0.9475 z m -13.058032,1.4375 c 1.58808,0 2.875473,0.4242 2.875473,0.9475 0,0.5232 -1.287393,0.9473 -2.875473,0.9473 -1.588079,0 -2.875474,-0.4241 -2.875474,-0.9473 0,-0.5233 1.287395,-0.9475 2.875474,-0.9475 z m 12.990374,2.4829 c 1.588079,0 2.875474,0.4242 2.875474,0.9475 0,0.5232 -1.287395,0.9474 -2.875474,0.9474 -1.58808,0 -2.875473,-0.4242 -2.875473,-0.9474 0,-0.5233 1.287393,-0.9475 2.875473,-0.9475 z m -5.006706,3.5937 c 1.588078,0 2.875473,0.4243 2.875473,0.9475 0,0.5232 -1.287395,0.9474 -2.875473,0.9474 -1.58808,0 -2.875474,-0.4242 -2.875474,-0.9474 0,-0.5232 1.287394,-0.9475 2.875474,-0.9475 z"
       id="path3790"
       inkscape:connector-curvature="0" />
    <path
       style="fill:#4fa44e;fill-opacity:1;stroke:none"
       d="m 34.461875,1013.4716 -14.112037,23.6051 c -1.101163,-0.021 -2.124265,-0.5439 -2.865086,-1.5975 l 15.120118,-23.0431 c 1.016233,-0.2404 1.635235,0.1055 1.857005,1.0355 z"
       id="path3804"
       inkscape:connector-curvature="0"
       sodipodi:nodetypes="ccccc" />
    <path
       style="fill:#4fa44e;fill-opacity:1;stroke:none"
       d="m 17.40357,1041.1841 c 1.582008,-0.2123 4.032698,-2.2312 2.888315,-5.1538 -2.743589,-0.785 -2.120529,-1.1823 -2.120529,-1.1823 -3.768684,0.9029 -6.632774,5.2118 -5.844121,7.951 0.50002,1.7367 0.416298,1.558 0.416298,1.558 1.045248,-3.3563 1.064156,-2.7416 4.660037,-3.1729 z"
       id="path3806"
       inkscape:connector-curvature="0"
       sodipodi:nodetypes="cccscc" />
  </g>
</svg>
