<?xml version="1.0" encoding="UTF-8" standalone="no"?>
<!-- Created with Inkscape (http://www.inkscape.org/) -->

<svg
   xmlns:dc="http://purl.org/dc/elements/1.1/"
   xmlns:cc="http://creativecommons.org/ns#"
   xmlns:rdf="http://www.w3.org/1999/02/22-rdf-syntax-ns#"
   xmlns:svg="http://www.w3.org/2000/svg"
   xmlns="http://www.w3.org/2000/svg"
   xmlns:xlink="http://www.w3.org/1999/xlink"
   xmlns:sodipodi="http://sodipodi.sourceforge.net/DTD/sodipodi-0.dtd"
   xmlns:inkscape="http://www.inkscape.org/namespaces/inkscape"
   width="48"
   height="48"
   id="svg2"
   version="1.1"
   inkscape:version="0.48.4 r9939"
   sodipodi:docname="applications-accessories.svg">
  <defs
     id="defs4">
    <linearGradient
       id="linearGradient3795">
      <stop
         style="stop-color:#6891b8;stop-opacity:1;"
         offset="0"
         id="stop3797" />
      <stop
         style="stop-color:#304a97;stop-opacity:1;"
         offset="1"
         id="stop3799" />
    </linearGradient>
    <linearGradient
       id="linearGradient3698">
      <stop
         id="stop3700"
         offset="0"
         style="stop-color:#96d0e1;stop-opacity:1" />
      <stop
         style="stop-color:#89b7e1;stop-opacity:1"
         offset="0.67819428"
         id="stop3706" />
      <stop
         id="stop3702"
         offset="1"
         style="stop-color:#699dd3;stop-opacity:1" />
    </linearGradient>
    <linearGradient
       id="linearGradient3708">
      <stop
         id="stop3710"
         offset="0"
         style="stop-color:#658db6;stop-opacity:1" />
      <stop
         style="stop-color:#527fab;stop-opacity:1;"
         offset="0.76777935"
         id="stop3716" />
      <stop
         id="stop3712"
         offset="1"
         style="stop-color:#4071a0;stop-opacity:1" />
    </linearGradient>
    <linearGradient
       id="linearGradient3750">
      <stop
         style="stop-color:#d0e2f1;stop-opacity:1"
         offset="0"
         id="stop3752" />
      <stop
         id="stop3756"
         offset="0.85580856"
         style="stop-color:#cadef0;stop-opacity:1" />
      <stop
         style="stop-color:#95bee3;stop-opacity:1"
         offset="1"
         id="stop3754" />
    </linearGradient>
    <linearGradient
       id="linearGradient3803">
      <stop
         id="stop3805"
         offset="0"
         style="stop-color:#d7def0;stop-opacity:1;" />
      <stop
         style="stop-color:#ffffff;stop-opacity:1"
         offset="0.5"
         id="stop3811" />
      <stop
         id="stop3807"
         offset="1"
         style="stop-color:#d5def0;stop-opacity:1" />
    </linearGradient>
    <linearGradient
       inkscape:collect="always"
       xlink:href="#linearGradient3795"
       id="linearGradient3801"
       x1="23.204165"
       y1="1053.158"
       x2="23.204165"
       y2="1004.8474"
       gradientUnits="userSpaceOnUse"
       gradientTransform="translate(0,-2056.7244)" />
    <linearGradient
       inkscape:collect="always"
       xlink:href="#linearGradient3795"
       id="linearGradient3859"
       x1="26.192217"
       y1="1024.0002"
       x2="28.641211"
       y2="1024.0002"
       gradientUnits="userSpaceOnUse" />
    <linearGradient
       inkscape:collect="always"
       xlink:href="#linearGradient3795"
       id="linearGradient3867"
       gradientUnits="userSpaceOnUse"
       x1="26.192217"
       y1="1024.0002"
       x2="28.641211"
       y2="1024.0002" />
    <linearGradient
       inkscape:collect="always"
       xlink:href="#linearGradient3795"
       id="linearGradient3869"
       gradientUnits="userSpaceOnUse"
       x1="26.192217"
       y1="1024.0002"
       x2="28.641211"
       y2="1024.0002" />
    <linearGradient
       inkscape:collect="always"
       xlink:href="#linearGradient3795"
       id="linearGradient3871"
       gradientUnits="userSpaceOnUse"
       x1="26.192217"
       y1="1024.0002"
       x2="28.641211"
       y2="1024.0002" />
    <linearGradient
       inkscape:collect="always"
       xlink:href="#linearGradient3795"
       id="linearGradient3877"
       gradientUnits="userSpaceOnUse"
       x1="29.718235"
       y1="1027.8575"
       x2="22.811094"
       y2="1015.5485" />
    <linearGradient
       inkscape:collect="always"
       xlink:href="#linearGradient3795"
       id="linearGradient3879"
       gradientUnits="userSpaceOnUse"
       x1="17.196316"
       y1="1006.2238"
       x2="31.448042"
       y2="1030.9086" />
    <linearGradient
       inkscape:collect="always"
       xlink:href="#linearGradient3795"
       id="linearGradient3895"
       x1="21.973417"
       y1="34.43922"
       x2="42.475323"
       y2="24.798252"
       gradientUnits="userSpaceOnUse" />
  </defs>
  <sodipodi:namedview
     id="base"
     pagecolor="#ffffff"
     bordercolor="#666666"
     borderopacity="1.0"
     inkscape:pageopacity="0.0"
     inkscape:pageshadow="2"
     inkscape:zoom="14.93683"
     inkscape:cx="3.1484572"
     inkscape:cy="21.505722"
     inkscape:document-units="px"
     inkscape:current-layer="layer1"
     showgrid="false"
     inkscape:window-width="1366"
     inkscape:window-height="715"
     inkscape:window-x="0"
     inkscape:window-y="26"
     inkscape:window-maximized="1">
    <inkscape:grid
       type="xygrid"
       id="grid3850" />
  </sodipodi:namedview>
  <metadata
     id="metadata7">
    <rdf:RDF>
      <cc:Work
         rdf:about="">
        <dc:format>image/svg+xml</dc:format>
        <dc:type
           rdf:resource="http://purl.org/dc/dcmitype/StillImage" />
        <dc:title />
      </cc:Work>
    </rdf:RDF>
  </metadata>
  <g
     inkscape:label="Capa 1"
     inkscape:groupmode="layer"
     id="layer1"
     transform="translate(0,-1004.3622)">
    <path
       inkscape:connector-curvature="0"
       id="path4518"
       d="m 29.722665,1027.7435 c -3.602228,0.1957 -6.468973,3.3969 -6.468973,7.3058 0,4.0351 3.054295,7.3059 6.819565,7.3059 3.76527,0 6.819564,-3.2708 6.819564,-7.3059 0,-4.035 -3.054294,-7.3058 -6.819564,-7.3058 -0.117663,0 -0.234391,-0.01 -0.350592,0 z"
       style="fill:none;stroke:#6891b8;stroke-width:1.27502977999999989;stroke-miterlimit:4;stroke-dasharray:none;stroke-opacity:1" />
    <g
       style="fill:#6891b8;stroke:#6891b8;stroke-width:0.83011687000000001;fill-opacity:1;stroke-opacity:1"
       id="g3267"
       transform="matrix(0.38399103,0,0,0.38399103,20.857471,640.16459)">
      <g
         style="fill:#6891b8;stroke:#6891b8;stroke-width:0.83011687000000001;fill-opacity:1;stroke-opacity:1"
         transform="matrix(1.7685444,0,0,0.89575871,-288.36914,106.95623)"
         id="g4578">
        <path
           inkscape:connector-curvature="0"
           id="rect4522"
           d="m 175.19921,1002.2507 2.85157,0 c 0.16224,0 0.29285,0.4977 0.29285,1.1161 l 0,3.4039 c 0,0.6182 -0.13061,1.116 -0.29285,1.116 l -2.85157,0 c -0.16224,0 -0.29285,-0.4978 -0.29285,-1.116 l 0,-3.4039 c 0,-0.6184 0.13061,-1.1161 0.29285,-1.1161 z"
           style="fill:#6891b8;fill-opacity:1;stroke:#6891b8;stroke-width:0.83011687000000001;stroke-opacity:1" />
        <path
           inkscape:connector-curvature="0"
           id="rect4524"
           d="m 175.19921,1049.3769 2.85157,0 c 0.16224,0 0.29285,0.4978 0.29285,1.116 l 0,3.4039 c 0,0.6183 -0.13061,1.1161 -0.29285,1.1161 l -2.85157,0 c -0.16224,0 -0.29285,-0.4978 -0.29285,-1.1161 l 0,-3.4039 c 0,-0.6182 0.13061,-1.116 0.29285,-1.116 z"
           style="fill:#6891b8;fill-opacity:1;stroke:#6891b8;stroke-width:0.83011687000000001;stroke-opacity:1" />
      </g>
      <path
         transform="matrix(1.5093951,0,0,1.5093951,-244.861,991.76336)"
         d="m 180.875,24.25 c 0,1.518783 -1.23122,2.75 -2.75,2.75 -1.51878,0 -2.75,-1.231217 -2.75,-2.75 0,-1.518783 1.23122,-2.75 2.75,-2.75 1.51878,0 2.75,1.231217 2.75,2.75 z"
         sodipodi:ry="2.75"
         sodipodi:rx="2.75"
         sodipodi:cy="24.25"
         sodipodi:cx="178.125"
         id="path4548"
         style="fill:#6891b8;stroke:#6891b8;stroke-width:0.83011687000000001;fill-opacity:1;stroke-opacity:1"
         sodipodi:type="arc" />
      <g
         style="fill:#6891b8;stroke:#6891b8;stroke-width:0.83011687000000001;fill-opacity:1;stroke-opacity:1"
         transform="matrix(1,0,0,2.0555375,0,-1085.4791)"
         id="g4648">
        <path
           style="fill:#6891b8;fill-opacity:1;stroke:#6891b8;stroke-width:0.83011687000000001;stroke-opacity:1"
           d="m 46.371442,1027.0891 0,2.5542 c 0,0.1454 -0.445819,0.2624 -0.999756,0.2624 l -3.049073,0 c -0.553758,0 -0.999667,-0.117 -0.999667,-0.2624 l 0,-2.5542 c 0,-0.1454 0.445909,-0.2624 0.999667,-0.2624 l 3.049073,0 c 0.553937,0 0.999756,0.117 0.999756,0.2624 z"
           id="path4596"
           inkscape:connector-curvature="0" />
        <path
           style="fill:#6891b8;fill-opacity:1;stroke:#6891b8;stroke-width:0.83011687000000001;stroke-opacity:1"
           d="m 6.6770503,1027.0891 0,2.5542 c 0,0.1454 -0.4459087,0.2624 -0.9996667,0.2624 l -3.0490731,0 c -0.5538476,0 -0.9997563,-0.117 -0.9997563,-0.2624 l 0,-2.5542 c 0,-0.1454 0.4459176,-0.2624 0.9997563,-0.2624 l 3.0490731,0 c 0.553758,0 0.9996667,0.117 0.9996667,0.2624 z"
           id="path4598"
           inkscape:connector-curvature="0" />
      </g>
      <g
         style="fill:#6891b8;stroke:#6891b8;stroke-width:0.83011687000000001;fill-opacity:1;stroke-opacity:1"
         id="g4652"
         transform="matrix(1.2505497,1.2505497,-0.63339706,0.63339706,454.65402,155.95143)">
        <path
           style="fill:#6891b8;fill-opacity:1;stroke:#6891b8;stroke-width:0.83011687000000001;stroke-opacity:1"
           d="m 175.19921,1002.2507 2.85157,0 c 0.16224,0 0.29285,0.4977 0.29285,1.1161 l 0,3.4039 c 0,0.6182 -0.13061,1.116 -0.29285,1.116 l -2.85157,0 c -0.16224,0 -0.29285,-0.4978 -0.29285,-1.116 l 0,-3.4039 c 0,-0.6184 0.13061,-1.1161 0.29285,-1.1161 z"
           id="path4654"
           inkscape:connector-curvature="0" />
        <path
           style="fill:#6891b8;fill-opacity:1;stroke:#6891b8;stroke-width:0.83011687000000001;stroke-opacity:1"
           d="m 175.19921,1049.3769 2.85157,0 c 0.16224,0 0.29285,0.4978 0.29285,1.116 l 0,3.4039 c 0,0.6183 -0.13061,1.1161 -0.29285,1.1161 l -2.85157,0 c -0.16224,0 -0.29285,-0.4978 -0.29285,-1.1161 l 0,-3.4039 c 0,-0.6182 0.13061,-1.116 0.29285,-1.116 z"
           id="path4656"
           inkscape:connector-curvature="0" />
      </g>
      <g
         style="fill:#6891b8;stroke:#6891b8;stroke-width:0.83011687000000001;fill-opacity:1;stroke-opacity:1"
         transform="matrix(-1.2505497,1.2505497,-0.63339706,-0.63339706,896.41069,1459.0161)"
         id="g4658">
        <path
           inkscape:connector-curvature="0"
           id="path4660"
           d="m 175.19921,1002.2507 2.85157,0 c 0.16224,0 0.29285,0.4977 0.29285,1.1161 l 0,3.4039 c 0,0.6182 -0.13061,1.116 -0.29285,1.116 l -2.85157,0 c -0.16224,0 -0.29285,-0.4978 -0.29285,-1.116 l 0,-3.4039 c 0,-0.6184 0.13061,-1.1161 0.29285,-1.1161 z"
           style="fill:#6891b8;fill-opacity:1;stroke:#6891b8;stroke-width:0.83011687000000001;stroke-opacity:1" />
        <path
           inkscape:connector-curvature="0"
           id="path4662"
           d="m 175.19921,1049.3769 2.85157,0 c 0.16224,0 0.29285,0.4978 0.29285,1.116 l 0,3.4039 c 0,0.6183 -0.13061,1.1161 -0.29285,1.1161 l -2.85157,0 c -0.16224,0 -0.29285,-0.4978 -0.29285,-1.1161 l 0,-3.4039 c 0,-0.6182 0.13061,-1.116 0.29285,-1.116 z"
           style="fill:#6891b8;fill-opacity:1;stroke:#6891b8;stroke-width:0.83011687000000001;stroke-opacity:1" />
      </g>
    </g>
    <path
       style="fill:none;stroke:#6891b8;stroke-width:1.27502965999999995;stroke-miterlimit:4;stroke-dasharray:none;stroke-opacity:1"
       d="m 21.685322,1015.1291 c -3.215413,-1.6356 -7.300372,-0.3018 -9.259093,3.081 -2.021928,3.492 -1.0177,7.853 2.240756,9.7397 3.258455,1.8867 7.540584,0.5866 9.562512,-2.9053 2.02189,-3.4919 1.017681,-7.853 -2.240774,-9.7397 -0.101826,-0.059 -0.199763,-0.1228 -0.303401,-0.1757 z"
       id="path3072"
       inkscape:connector-curvature="0" />
    <g
       id="g3074"
       style="fill:#6891b8;stroke:#6891b8;stroke-width:0.83011687000000001;stroke-opacity:1;fill-opacity:1"
       transform="matrix(0.33230488,0.1924125,-0.1924125,0.33230488,208.22373,675.27711)">
      <g
         id="g3076"
         transform="matrix(1.7685444,0,0,0.89575871,-288.36914,106.95623)"
         style="fill:#6891b8;stroke:#6891b8;stroke-width:0.83011687000000001;stroke-opacity:1;fill-opacity:1">
        <path
           style="fill:#6891b8;fill-opacity:1;stroke:#6891b8;stroke-width:0.83011687000000001;stroke-opacity:1"
           d="m 175.19921,1002.2507 2.85157,0 c 0.16224,0 0.29285,0.4977 0.29285,1.1161 l 0,3.4039 c 0,0.6182 -0.13061,1.116 -0.29285,1.116 l -2.85157,0 c -0.16224,0 -0.29285,-0.4978 -0.29285,-1.116 l 0,-3.4039 c 0,-0.6184 0.13061,-1.1161 0.29285,-1.1161 z"
           id="path3078"
           inkscape:connector-curvature="0" />
        <path
           style="fill:#6891b8;fill-opacity:1;stroke:#6891b8;stroke-width:0.83011687000000001;stroke-opacity:1"
           d="m 175.19921,1049.3769 2.85157,0 c 0.16224,0 0.29285,0.4978 0.29285,1.116 l 0,3.4039 c 0,0.6183 -0.13061,1.1161 -0.29285,1.1161 l -2.85157,0 c -0.16224,0 -0.29285,-0.4978 -0.29285,-1.1161 l 0,-3.4039 c 0,-0.6182 0.13061,-1.116 0.29285,-1.116 z"
           id="path3080"
           inkscape:connector-curvature="0" />
      </g>
      <path
         sodipodi:type="arc"
         style="fill:#6891b8;stroke:#6891b8;stroke-width:0.83011687000000001;stroke-opacity:1;fill-opacity:1"
         id="path3082"
         sodipodi:cx="178.125"
         sodipodi:cy="24.25"
         sodipodi:rx="2.75"
         sodipodi:ry="2.75"
         d="m 180.875,24.25 c 0,1.518783 -1.23122,2.75 -2.75,2.75 -1.51878,0 -2.75,-1.231217 -2.75,-2.75 0,-1.518783 1.23122,-2.75 2.75,-2.75 1.51878,0 2.75,1.231217 2.75,2.75 z"
         transform="matrix(1.5093951,0,0,1.5093951,-244.861,991.76336)" />
      <g
         id="g3084"
         transform="matrix(1,0,0,2.0555375,0,-1085.4791)"
         style="fill:#6891b8;stroke:#6891b8;stroke-width:0.83011687000000001;stroke-opacity:1;fill-opacity:1">
        <path
           inkscape:connector-curvature="0"
           id="path3086"
           d="m 46.371442,1027.0891 0,2.5542 c 0,0.1454 -0.445819,0.2624 -0.999756,0.2624 l -3.049073,0 c -0.553758,0 -0.999667,-0.117 -0.999667,-0.2624 l 0,-2.5542 c 0,-0.1454 0.445909,-0.2624 0.999667,-0.2624 l 3.049073,0 c 0.553937,0 0.999756,0.117 0.999756,0.2624 z"
           style="fill:#6891b8;fill-opacity:1;stroke:#6891b8;stroke-width:0.83011687000000001;stroke-opacity:1" />
        <path
           inkscape:connector-curvature="0"
           id="path3088"
           d="m 6.6770503,1027.0891 0,2.5542 c 0,0.1454 -0.4459087,0.2624 -0.9996667,0.2624 l -3.0490731,0 c -0.5538476,0 -0.9997563,-0.117 -0.9997563,-0.2624 l 0,-2.5542 c 0,-0.1454 0.4459176,-0.2624 0.9997563,-0.2624 l 3.0490731,0 c 0.553758,0 0.9996667,0.117 0.9996667,0.2624 z"
           style="fill:#6891b8;fill-opacity:1;stroke:#6891b8;stroke-width:0.83011687000000001;stroke-opacity:1" />
      </g>
      <g
         transform="matrix(1.2505497,1.2505497,-0.63339706,0.63339706,454.65402,155.95143)"
         id="g3090"
         style="fill:#6891b8;stroke:#6891b8;stroke-width:0.83011687000000001;stroke-opacity:1;fill-opacity:1">
        <path
           inkscape:connector-curvature="0"
           id="path3092"
           d="m 175.19921,1002.2507 2.85157,0 c 0.16224,0 0.29285,0.4977 0.29285,1.1161 l 0,3.4039 c 0,0.6182 -0.13061,1.116 -0.29285,1.116 l -2.85157,0 c -0.16224,0 -0.29285,-0.4978 -0.29285,-1.116 l 0,-3.4039 c 0,-0.6184 0.13061,-1.1161 0.29285,-1.1161 z"
           style="fill:#6891b8;fill-opacity:1;stroke:#6891b8;stroke-width:0.83011687000000001;stroke-opacity:1" />
        <path
           inkscape:connector-curvature="0"
           id="path3094"
           d="m 175.19921,1049.3769 2.85157,0 c 0.16224,0 0.29285,0.4978 0.29285,1.116 l 0,3.4039 c 0,0.6183 -0.13061,1.1161 -0.29285,1.1161 l -2.85157,0 c -0.16224,0 -0.29285,-0.4978 -0.29285,-1.1161 l 0,-3.4039 c 0,-0.6182 0.13061,-1.116 0.29285,-1.116 z"
           style="fill:#6891b8;fill-opacity:1;stroke:#6891b8;stroke-width:0.83011687000000001;stroke-opacity:1" />
      </g>
      <g
         id="g3096"
         transform="matrix(-1.2505497,1.2505497,-0.63339706,-0.63339706,896.41069,1459.0161)"
         style="fill:#6891b8;stroke:#6891b8;stroke-width:0.83011687000000001;stroke-opacity:1;fill-opacity:1">
        <path
           style="fill:#6891b8;fill-opacity:1;stroke:#6891b8;stroke-width:0.83011687000000001;stroke-opacity:1"
           d="m 175.19921,1002.2507 2.85157,0 c 0.16224,0 0.29285,0.4977 0.29285,1.1161 l 0,3.4039 c 0,0.6182 -0.13061,1.116 -0.29285,1.116 l -2.85157,0 c -0.16224,0 -0.29285,-0.4978 -0.29285,-1.116 l 0,-3.4039 c 0,-0.6184 0.13061,-1.1161 0.29285,-1.1161 z"
           id="path3098"
           inkscape:connector-curvature="0" />
        <path
           style="fill:#6891b8;fill-opacity:1;stroke:#6891b8;stroke-width:0.83011687000000001;stroke-opacity:1"
           d="m 175.19921,1049.3769 2.85157,0 c 0.16224,0 0.29285,0.4978 0.29285,1.116 l 0,3.4039 c 0,0.6183 -0.13061,1.1161 -0.29285,1.1161 l -2.85157,0 c -0.16224,0 -0.29285,-0.4978 -0.29285,-1.1161 l 0,-3.4039 c 0,-0.6182 0.13061,-1.116 0.29285,-1.116 z"
           id="path3100"
           inkscape:connector-curvature="0" />
      </g>
    </g>
  </g>
</svg>
