<?xml version="1.0" encoding="UTF-8" standalone="no"?>
<!-- Created with Inkscape (http://www.inkscape.org/) -->

<svg
   xmlns:dc="http://purl.org/dc/elements/1.1/"
   xmlns:cc="http://creativecommons.org/ns#"
   xmlns:rdf="http://www.w3.org/1999/02/22-rdf-syntax-ns#"
   xmlns:svg="http://www.w3.org/2000/svg"
   xmlns="http://www.w3.org/2000/svg"
   xmlns:sodipodi="http://sodipodi.sourceforge.net/DTD/sodipodi-0.dtd"
   xmlns:inkscape="http://www.inkscape.org/namespaces/inkscape"
   id="svg2160"
   height="16"
   width="16"
   version="1.0"
   inkscape:version="0.48.4 r9939"
   sodipodi:docname="bluetooth-paired.svg">
  <metadata
     id="metadata9">
    <rdf:RDF>
      <cc:Work
         rdf:about="">
        <dc:format>image/svg+xml</dc:format>
        <dc:type
           rdf:resource="http://purl.org/dc/dcmitype/StillImage" />
        <dc:title />
      </cc:Work>
    </rdf:RDF>
  </metadata>
  <defs
     id="defs7" />
  <sodipodi:namedview
     pagecolor="#ffffff"
     bordercolor="#666666"
     borderopacity="1"
     objecttolerance="10"
     gridtolerance="10"
     guidetolerance="10"
     inkscape:pageopacity="0"
     inkscape:pageshadow="2"
     inkscape:window-width="1366"
     inkscape:window-height="712"
     id="namedview5"
     showgrid="true"
     inkscape:zoom="27.812867"
     inkscape:cx="9.1191299"
     inkscape:cy="8.4879507"
     inkscape:window-x="0"
     inkscape:window-y="27"
     inkscape:window-maximized="1"
     inkscape:current-layer="svg2160">
    <inkscape:grid
       type="xygrid"
       id="grid2986"
       empspacing="5"
       visible="true"
       enabled="true"
       snapvisiblegridlinesonly="true" />
  </sodipodi:namedview>
  <g
     transform="translate(-127,-437)"
     id="g4489">
    <path
       id="rect13949-4"
       d="m 136.84375,446 c -0.49159,0.0463 -0.90838,0.50624 -0.90625,1 l 0,5 c 5e-5,0.52358 0.47641,0.99995 1,1 l 5,0 c 0.52358,-5e-5 0.99995,-0.47642 1,-1 l 0,-5 c -5e-5,-0.52358 -0.47642,-0.99995 -1,-1 l -5,0 c -0.0312,-10e-4 -0.0625,-10e-4 -0.0937,0 z m 1.15625,1 1,0 0,5 -1,0 0,-1 0,-1 -1,0 0,-1 1,0 0,-2 z m 2,0 1,0 0,2 1,0 0,1 -1,0 0,2 -1,0 0,-5 z"
       style="font-size:medium;font-style:normal;font-variant:normal;font-weight:normal;font-stretch:normal;text-indent:0;text-align:start;text-decoration:none;line-height:normal;letter-spacing:normal;word-spacing:normal;text-transform:none;direction:ltr;block-progression:tb;writing-mode:lr-tb;text-anchor:start;baseline-shift:baseline;color:#000000;fill:#ff9a38;fill-opacity:1;fill-rule:nonzero;stroke:none;stroke-width:2;marker:none;visibility:visible;display:inline;overflow:visible;enable-background:accumulate;font-family:Sans;-inkscape-font-specification:Sans"
       inkscape:connector-curvature="0" />
    <path
       inkscape:connector-curvature="0"
       id="path2988-0"
       d="m 133,437 0,5.40625 -3,-2.40625 -1,0 0,2 4,2.875 0,0.25 -4,2.875 0,2 1,0 3,-2.40625 0,5.40625 1,0 1,-0.84375 0,-2.15625 0,-3.5625 0,-1.4375 1.25,0 3.75,-3 -6,-5 -1,0 z m 2,3 2,2 -2,1.5625 0,-3.5625 z"
       style="fill:#dcdcdc;fill-opacity:1;stroke:none" />
  </g>
</svg>
