<?xml version="1.0" encoding="UTF-8" standalone="no"?>
<!-- Created with Inkscape (http://www.inkscape.org/) -->

<svg
   xmlns:dc="http://purl.org/dc/elements/1.1/"
   xmlns:cc="http://creativecommons.org/ns#"
   xmlns:rdf="http://www.w3.org/1999/02/22-rdf-syntax-ns#"
   xmlns:svg="http://www.w3.org/2000/svg"
   xmlns="http://www.w3.org/2000/svg"
   xmlns:sodipodi="http://sodipodi.sourceforge.net/DTD/sodipodi-0.dtd"
   xmlns:inkscape="http://www.inkscape.org/namespaces/inkscape"
   version="1.1"
   width="16"
   height="16"
   id="svg7739"
   inkscape:version="0.48.4 r9939"
   sodipodi:docname="dialog-password.svg">
  <metadata
     id="metadata10">
    <rdf:RDF>
      <cc:Work
         rdf:about="">
        <dc:format>image/svg+xml</dc:format>
        <dc:type
           rdf:resource="http://purl.org/dc/dcmitype/StillImage" />
        <dc:title />
      </cc:Work>
    </rdf:RDF>
  </metadata>
  <sodipodi:namedview
     pagecolor="#ffffff"
     bordercolor="#666666"
     borderopacity="1"
     objecttolerance="10"
     gridtolerance="10"
     guidetolerance="10"
     inkscape:pageopacity="0"
     inkscape:pageshadow="2"
     inkscape:window-width="1366"
     inkscape:window-height="712"
     id="namedview8"
     showgrid="true"
     inkscape:zoom="19.666668"
     inkscape:cx="13.471491"
     inkscape:cy="7.2151831"
     inkscape:window-x="0"
     inkscape:window-y="27"
     inkscape:window-maximized="1"
     inkscape:current-layer="svg7739">
    <inkscape:grid
       type="xygrid"
       id="grid2987"
       empspacing="5"
       visible="true"
       enabled="true"
       snapvisiblegridlinesonly="true" />
  </sodipodi:namedview>
  <defs
     id="defs7741" />
  <g
     id="g4822"
     transform="translate(-65.021292,-495.98526)">
    <path
       id="path4785"
       d="m 69,500 c -2.209139,0 -4,1.79086 -4,4 0,2.20914 1.790861,4 4,4 2.209139,0 4,-1.79086 4,-4 0,-2.20914 -1.790861,-4 -4,-4 z m -1,3 c 0.552285,0 1,0.44772 1,1 0,0.55228 -0.447715,1 -1,1 -0.552285,0 -1,-0.44772 -1,-1 0,-0.55228 0.447715,-1 1,-1 z"
       style="fill:#dcdcdc;fill-opacity:1;stroke:none"
       inkscape:connector-curvature="0" />
    <path
       id="path4820"
       d="m 81,503 -8,0 0,1 7.625,0 0.28125,-0.5625 A 1.0001,1.0001 0 0 0 81,503 z"
       style="font-size:medium;font-style:normal;font-variant:normal;font-weight:normal;font-stretch:normal;text-indent:0;text-align:start;text-decoration:none;line-height:normal;letter-spacing:normal;word-spacing:normal;text-transform:none;direction:ltr;block-progression:tb;writing-mode:lr-tb;text-anchor:start;baseline-shift:baseline;opacity:0.3;color:#000000;fill:#dcdcdc;fill-opacity:1;stroke:none;stroke-width:2;marker:none;visibility:visible;display:inline;overflow:visible;enable-background:accumulate;font-family:Sans;-inkscape-font-specification:Sans"
       inkscape:connector-curvature="0" />
    <path
       id="path4787"
       d="M 71.8125,502 A 1.0001,1.0001 0 0 0 71,503 l 0,2 a 1.0001,1.0001 0 0 0 1,1 l 2,0 0,-1 2,0 0,1 1,0 0,-1 2,0 0,1 a 1.0001,1.0001 0 0 0 0.90625,-0.5625 L 80.625,504 73,504 l 0,-1 8,0 a 1.0001,1.0001 0 0 0 -1,-1 l -8,0 a 1.0001,1.0001 0 0 0 -0.09375,0 1.0001,1.0001 0 0 0 -0.09375,0 z"
       style="font-size:medium;font-style:normal;font-variant:normal;font-weight:normal;font-stretch:normal;text-indent:0;text-align:start;text-decoration:none;line-height:normal;letter-spacing:normal;word-spacing:normal;text-transform:none;direction:ltr;block-progression:tb;writing-mode:lr-tb;text-anchor:start;baseline-shift:baseline;color:#000000;fill:#dcdcdc;fill-opacity:1;stroke:none;stroke-width:2;marker:none;visibility:visible;display:inline;overflow:visible;enable-background:accumulate;font-family:Sans;-inkscape-font-specification:Sans"
       inkscape:connector-curvature="0" />
    <rect
       y="505"
       x="74"
       height="1"
       width="2"
       id="rect4804"
       style="opacity:0.3;fill:#dcdcdc;fill-opacity:1;stroke:none" />
    <rect
       y="505"
       x="77"
       height="1"
       width="2"
       id="rect4806"
       style="opacity:0.3;fill:#dcdcdc;fill-opacity:1;stroke:none" />
  </g>
</svg>
