<?xml version="1.0" encoding="UTF-8" standalone="no"?>
<!-- Created with Inkscape (http://www.inkscape.org/) -->

<svg
   xmlns:dc="http://purl.org/dc/elements/1.1/"
   xmlns:cc="http://creativecommons.org/ns#"
   xmlns:rdf="http://www.w3.org/1999/02/22-rdf-syntax-ns#"
   xmlns:svg="http://www.w3.org/2000/svg"
   xmlns="http://www.w3.org/2000/svg"
   xmlns:sodipodi="http://sodipodi.sourceforge.net/DTD/sodipodi-0.dtd"
   xmlns:inkscape="http://www.inkscape.org/namespaces/inkscape"
   id="svg3196"
   height="16"
   width="16"
   version="1.0"
   inkscape:version="0.48.4 r9939"
   sodipodi:docname="ibus-keyboard.svg">
  <metadata
     id="metadata18">
    <rdf:RDF>
      <cc:Work
         rdf:about="">
        <dc:format>image/svg+xml</dc:format>
        <dc:type
           rdf:resource="http://purl.org/dc/dcmitype/StillImage" />
      </cc:Work>
    </rdf:RDF>
  </metadata>
  <defs
     id="defs16" />
  <sodipodi:namedview
     pagecolor="#ffffff"
     bordercolor="#666666"
     borderopacity="1"
     objecttolerance="10"
     gridtolerance="10"
     guidetolerance="10"
     inkscape:pageopacity="0"
     inkscape:pageshadow="2"
     inkscape:window-width="640"
     inkscape:window-height="480"
     id="namedview14"
     showgrid="true"
     inkscape:zoom="14.75"
     inkscape:cx="7.9704062"
     inkscape:cy="8.0126006"
     inkscape:window-x="0"
     inkscape:window-y="27"
     inkscape:window-maximized="0"
     inkscape:current-layer="svg3196">
    <inkscape:grid
       type="xygrid"
       id="grid2995" />
  </sodipodi:namedview>
  <g
     transform="translate(-67,-347)"
     id="g12941"
     style="fill:#dcdcdc;fill-opacity:1">
    <path
       inkscape:connector-curvature="0"
       id="rect12912"
       d="m 67.906258,351 c -0.491584,0.0463 -0.908379,0.50624 -0.90625,1 l 0,7 c 5.2e-5,0.52358 0.476416,0.99995 1,1 l 14,0 c 0.523584,-5e-5 0.999948,-0.47642 1,-1 l 0,-7 c -5.2e-5,-0.52358 -0.476416,-0.99995 -1,-1 l -14,0 c -0.03123,-10e-4 -0.06252,-10e-4 -0.09375,0 z m 1.09375,2 3,0 0,2 -3,0 0,-2 z m 4,0 2,0 0,2 -2,0 0,-2 z m 3,0 2,0 0,2 -2,0 0,-2 z m 3,0 2,0 0,3 -2,0 0,-3 z m -10,3 2,0 0,2 -2,0 0,-2 z m 3,0 6,0 0,1 0,1 -6,0 0,-1 0,-1 z m 7,1 2,0 0,0.5 0,0.5 -2,0 0,-0.5 0,-0.5 z"
       style="font-size:medium;font-style:normal;font-variant:normal;font-weight:normal;font-stretch:normal;text-indent:0;text-align:start;text-decoration:none;line-height:normal;letter-spacing:normal;word-spacing:normal;text-transform:none;direction:ltr;block-progression:tb;writing-mode:lr-tb;text-anchor:start;baseline-shift:baseline;color:#000000;fill:#dcdcdc;fill-opacity:1;fill-rule:nonzero;stroke:none;stroke-width:2;marker:none;visibility:visible;display:inline;overflow:visible;enable-background:accumulate;font-family:Sans;-inkscape-font-specification:Sans" />
  </g>
</svg>
