<?xml version="1.0" encoding="UTF-8" standalone="no"?>
<!-- Created with Inkscape (http://www.inkscape.org/) -->

<svg
   xmlns:dc="http://purl.org/dc/elements/1.1/"
   xmlns:cc="http://creativecommons.org/ns#"
   xmlns:rdf="http://www.w3.org/1999/02/22-rdf-syntax-ns#"
   xmlns:svg="http://www.w3.org/2000/svg"
   xmlns="http://www.w3.org/2000/svg"
   xmlns:sodipodi="http://sodipodi.sourceforge.net/DTD/sodipodi-0.dtd"
   xmlns:inkscape="http://www.inkscape.org/namespaces/inkscape"
   version="1.1"
   width="16"
   height="16"
   id="svg2896"
   inkscape:version="0.48.4 r9939"
   sodipodi:docname="stock_weather-few-clouds.svg">
  <metadata
     id="metadata16">
    <rdf:RDF>
      <cc:Work
         rdf:about="">
        <dc:format>image/svg+xml</dc:format>
        <dc:type
           rdf:resource="http://purl.org/dc/dcmitype/StillImage" />
      </cc:Work>
    </rdf:RDF>
  </metadata>
  <sodipodi:namedview
     pagecolor="#ffffff"
     bordercolor="#666666"
     borderopacity="1"
     objecttolerance="10"
     gridtolerance="10"
     guidetolerance="10"
     inkscape:pageopacity="0"
     inkscape:pageshadow="2"
     inkscape:window-width="682"
     inkscape:window-height="712"
     id="namedview14"
     showgrid="true"
     inkscape:zoom="14.75"
     inkscape:cx="8"
     inkscape:cy="8"
     inkscape:window-x="683"
     inkscape:window-y="27"
     inkscape:window-maximized="0"
     inkscape:current-layer="svg2896">
    <inkscape:grid
       type="xygrid"
       id="grid2993" />
  </sodipodi:namedview>
  <defs
     id="defs2898" />
  <g
     transform="translate(-187,-377)"
     id="g4578">
    <path
       inkscape:connector-curvature="0"
       id="path13415-1"
       d="m 195,377 c -0.55228,0 -1,0.44772 -1,1 0,0.55228 0.44772,1 1,1 0.55228,0 1,-0.44772 1,-1 0,-0.55228 -0.44772,-1 -1,-1 z m -4.9375,2.0625 c -0.25592,0 -0.52349,0.086 -0.71875,0.28125 -0.39052,0.39052 -0.39052,1.01573 0,1.40625 0.39052,0.39052 1.01573,0.39052 1.40625,0 0.39052,-0.39052 0.39052,-1.01573 0,-1.40625 -0.19526,-0.19526 -0.43158,-0.28125 -0.6875,-0.28125 z m 9.875,0 c -0.25592,0 -0.49224,0.086 -0.6875,0.28125 -0.39052,0.39052 -0.39052,1.01573 0,1.40625 0.39052,0.39052 1.01573,0.39052 1.40625,0 0.39052,-0.39052 0.39052,-1.01573 0,-1.40625 -0.19526,-0.19526 -0.46283,-0.28125 -0.71875,-0.28125 z M 195,380 c -2.76142,0 -5,2.23858 -5,5 0,2.76142 2.23858,5 5,5 0.3797,0 0.73828,-0.0448 1.09375,-0.125 0.29671,-1.62418 1.70123,-2.875 3.40625,-2.875 0.021,0 0.0417,-4.4e-4 0.0625,0 0.2709,-0.61561 0.4375,-1.28427 0.4375,-2 0,-2.76142 -2.23858,-5 -5,-5 z m -7,4 c -0.55228,0 -1,0.44772 -1,1 0,0.55228 0.44772,1 1,1 0.55228,0 1,-0.44772 1,-1 0,-0.55228 -0.44772,-1 -1,-1 z m 14,0 c -0.55228,0 -1,0.44772 -1,1 0,0.55228 0.44772,1 1,1 0.55228,0 1,-0.44772 1,-1 0,-0.55228 -0.44772,-1 -1,-1 z m -11.9375,4.9375 c -0.25592,0 -0.52349,0.11724 -0.71875,0.3125 -0.39052,0.39052 -0.39052,1.01573 0,1.40625 0.39052,0.39052 1.01573,0.39052 1.40625,0 0.39052,-0.39052 0.39052,-1.01573 0,-1.40625 -0.19526,-0.19526 -0.43158,-0.3125 -0.6875,-0.3125 z M 199.625,389 c -0.13891,0.0529 -0.26014,0.13514 -0.375,0.25 -0.39052,0.39052 -0.39052,1.01573 0,1.40625 0.39052,0.39052 1.01573,0.39052 1.40625,0 0.13853,-0.13853 0.20975,-0.32336 0.25,-0.5 -0.14843,-0.6293 -0.63135,-1.1044 -1.28125,-1.15625 z M 195,391 c -0.55228,0 -1,0.44772 -1,1 0,0.55228 0.44772,1 1,1 0.0921,0 0.16535,-0.0392 0.25,-0.0625 C 195.09884,392.65714 195,392.33669 195,392 c 0,-0.35837 0.12681,-0.67284 0.3125,-0.9375 C 195.21065,391.02754 195.1137,391 195,391 z"
       style="fill:#dcdcdc;fill-opacity:1;stroke:none" />
    <path
       inkscape:connector-curvature="0"
       id="path13574"
       d="m 199.5,388 c -1.38071,0 -2.5,1.11929 -2.5,2.5 0,0.17259 0.0292,0.33726 0.0625,0.5 -0.0213,-10e-4 -0.0408,0 -0.0625,0 -0.55228,0 -1,0.44772 -1,1 0,0.55228 0.44772,1 1,1 l 2.5,0 3,0 c 0.82843,0 1.5,-0.67157 1.5,-1.5 0,-0.82843 -0.67157,-1.5 -1.5,-1.5 -0.19675,0 -0.39034,0.0561 -0.5625,0.125 C 201.75333,388.92592 200.75061,388 199.5,388 z"
       style="fill:#dcdcdc;fill-opacity:1;stroke:none" />
  </g>
</svg>
