<?xml version="1.0" encoding="UTF-8" standalone="no"?>
<!-- Created with Inkscape (http://www.inkscape.org/) -->

<svg
   xmlns:dc="http://purl.org/dc/elements/1.1/"
   xmlns:cc="http://creativecommons.org/ns#"
   xmlns:rdf="http://www.w3.org/1999/02/22-rdf-syntax-ns#"
   xmlns:svg="http://www.w3.org/2000/svg"
   xmlns="http://www.w3.org/2000/svg"
   xmlns:sodipodi="http://sodipodi.sourceforge.net/DTD/sodipodi-0.dtd"
   xmlns:inkscape="http://www.inkscape.org/namespaces/inkscape"
   id="svg2896"
   height="16"
   width="16"
   version="1.1"
   inkscape:version="0.48.4 r9939"
   sodipodi:docname="stock_weather-fog.svg">
  <metadata
     id="metadata10">
    <rdf:RDF>
      <cc:Work
         rdf:about="">
        <dc:format>image/svg+xml</dc:format>
        <dc:type
           rdf:resource="http://purl.org/dc/dcmitype/StillImage" />
      </cc:Work>
    </rdf:RDF>
  </metadata>
  <defs
     id="defs8" />
  <sodipodi:namedview
     pagecolor="#ffffff"
     bordercolor="#666666"
     borderopacity="1"
     objecttolerance="10"
     gridtolerance="10"
     guidetolerance="10"
     inkscape:pageopacity="0"
     inkscape:pageshadow="2"
     inkscape:window-width="682"
     inkscape:window-height="712"
     id="namedview6"
     showgrid="true"
     inkscape:zoom="14.75"
     inkscape:cx="8"
     inkscape:cy="8"
     inkscape:window-x="683"
     inkscape:window-y="27"
     inkscape:window-maximized="0"
     inkscape:current-layer="svg2896">
    <inkscape:grid
       type="xygrid"
       id="grid2987" />
  </sodipodi:namedview>
  <g
     id="g13404"
     transform="translate(-65.983396,-375.99839)">
    <path
       inkscape:connector-curvature="0"
       id="path13362"
       d="m 71,378 c -1.166667,0 -2.068243,0.28412 -2.6875,0.59375 -0.619257,0.30963 -1.03125,0.6875 -1.03125,0.6875 a 1.016466,1.016466 0 1 0 1.4375,1.4375 c 0,0 0.08801,-0.12213 0.46875,-0.3125 C 69.568243,380.21588 70.166667,380 71,380 c 0.833333,0 1.431757,0.21588 1.8125,0.40625 0.380743,0.19037 0.46875,0.3125 0.46875,0.3125 0,0 0.411993,0.37787 1.03125,0.6875 C 74.931757,381.71588 75.833333,382 77,382 c 1.166667,0 2.068243,-0.28412 2.6875,-0.59375 0.619257,-0.30963 1.03125,-0.6875 1.03125,-0.6875 a 1.016466,1.016466 0 1 0 -1.4375,-1.4375 c 0,0 -0.08801,0.12213 -0.46875,0.3125 C 78.431757,379.78412 77.833333,380 77,380 c -0.833333,0 -1.431757,-0.21588 -1.8125,-0.40625 -0.380743,-0.19037 -0.46875,-0.3125 -0.46875,-0.3125 0,0 -0.411993,-0.37787 -1.03125,-0.6875 C 73.068243,378.28412 72.166667,378 71,378 z"
       style="font-size:medium;font-style:normal;font-variant:normal;font-weight:normal;font-stretch:normal;text-indent:0;text-align:start;text-decoration:none;line-height:normal;letter-spacing:normal;word-spacing:normal;text-transform:none;direction:ltr;block-progression:tb;writing-mode:lr-tb;text-anchor:start;baseline-shift:baseline;color:#000000;fill:#dcdcdc;fill-opacity:1;stroke:none;stroke-width:2;marker:none;visibility:visible;display:inline;overflow:visible;enable-background:accumulate;font-family:Sans;-inkscape-font-specification:Sans" />
    <path
       inkscape:connector-curvature="0"
       id="path13362-0"
       d="m 70.999954,381.9771 c -1.166667,0 -2.068243,0.28412 -2.6875,0.59375 -0.619257,0.30963 -1.03125,0.6875 -1.03125,0.6875 a 1.016466,1.016466 0 1 0 1.4375,1.4375 c 0,0 0.08801,-0.12213 0.46875,-0.3125 0.380743,-0.19037 0.979167,-0.40625 1.8125,-0.40625 0.833333,0 1.431757,0.21588 1.8125,0.40625 0.380743,0.19037 0.46875,0.3125 0.46875,0.3125 0,0 0.411993,0.37787 1.03125,0.6875 0.619257,0.30963 1.520833,0.59375 2.6875,0.59375 1.166667,0 2.068243,-0.28412 2.6875,-0.59375 0.619257,-0.30963 1.03125,-0.6875 1.03125,-0.6875 a 1.016466,1.016466 0 1 0 -1.4375,-1.4375 c 0,0 -0.08801,0.12213 -0.46875,0.3125 -0.380743,0.19037 -0.979167,0.40625 -1.8125,0.40625 -0.833333,0 -1.431757,-0.21588 -1.8125,-0.40625 -0.380743,-0.19037 -0.46875,-0.3125 -0.46875,-0.3125 0,0 -0.411993,-0.37787 -1.03125,-0.6875 -0.619257,-0.30963 -1.520833,-0.59375 -2.6875,-0.59375 z"
       style="font-size:medium;font-style:normal;font-variant:normal;font-weight:normal;font-stretch:normal;text-indent:0;text-align:start;text-decoration:none;line-height:normal;letter-spacing:normal;word-spacing:normal;text-transform:none;direction:ltr;block-progression:tb;writing-mode:lr-tb;text-anchor:start;baseline-shift:baseline;color:#000000;fill:#dcdcdc;fill-opacity:1;stroke:none;stroke-width:2;marker:none;visibility:visible;display:inline;overflow:visible;enable-background:accumulate;font-family:Sans;-inkscape-font-specification:Sans" />
    <path
       inkscape:connector-curvature="0"
       id="path13362-0-2"
       d="m 70.999908,385.99839 c -1.166667,0 -2.068243,0.28412 -2.6875,0.59375 -0.619257,0.30963 -1.03125,0.6875 -1.03125,0.6875 a 1.016466,1.016466 0 1 0 1.4375,1.4375 c 0,0 0.08801,-0.12213 0.46875,-0.3125 0.380743,-0.19037 0.979167,-0.40625 1.8125,-0.40625 0.833333,0 1.431757,0.21588 1.8125,0.40625 0.380743,0.19037 0.46875,0.3125 0.46875,0.3125 0,0 0.411993,0.37787 1.03125,0.6875 0.619257,0.30963 1.520833,0.59375 2.6875,0.59375 1.166667,0 2.068243,-0.28412 2.6875,-0.59375 0.619257,-0.30963 1.03125,-0.6875 1.03125,-0.6875 a 1.016466,1.016466 0 1 0 -1.4375,-1.4375 c 0,0 -0.08801,0.12213 -0.46875,0.3125 -0.380743,0.19037 -0.979167,0.40625 -1.8125,0.40625 -0.833333,0 -1.431757,-0.21588 -1.8125,-0.40625 -0.380743,-0.19037 -0.46875,-0.3125 -0.46875,-0.3125 0,0 -0.411993,-0.37787 -1.03125,-0.6875 -0.619257,-0.30963 -1.520833,-0.59375 -2.6875,-0.59375 z"
       style="font-size:medium;font-style:normal;font-variant:normal;font-weight:normal;font-stretch:normal;text-indent:0;text-align:start;text-decoration:none;line-height:normal;letter-spacing:normal;word-spacing:normal;text-transform:none;direction:ltr;block-progression:tb;writing-mode:lr-tb;text-anchor:start;baseline-shift:baseline;color:#000000;fill:#dcdcdc;fill-opacity:1;stroke:none;stroke-width:2;marker:none;visibility:visible;display:inline;overflow:visible;enable-background:accumulate;font-family:Sans;-inkscape-font-specification:Sans" />
  </g>
</svg>
